<?xml version="1.0" encoding="UTF-8"?>
<svg width="64px" height="34px" viewBox="0 0 64 34" version="1.1" xmlns="http://www.w3.org/2000/svg" xmlns:xlink="http://www.w3.org/1999/xlink">
    <!-- Generator: sketchtool 53.2 (72643) - https://sketchapp.com -->
    <title>C8C3F468-20B2-46EE-852F-B5E646A9DB38</title>
    <desc>Created with sketchtool.</desc>
    <g id="Page-1" stroke="none" stroke-width="1" fill="none" fill-rule="evenodd" stroke-linecap="round" stroke-linejoin="round">
        <g id="CADM_homepage_UI" transform="translate(-844.000000, -1442.000000)" fill="#2C2E34" fill-rule="nonzero" stroke="#2C2E34" stroke-width="0.5">
            <g id="Sectors" transform="translate(0.000000, 1360.500000)">
                <g id="Group-20" transform="translate(734.666667, 82.398646)">
                    <g id="maritime/dark" transform="translate(109.604370, 0.000000)">
                        <path d="M18.46558,27.4675323 L18.4611,27.4665523 C18.04936,27.3562323 17.63468,27.2599123 17.21804,27.1731123 C20.2104,27.4125123 23.2967,28.0222123 26.57522,29.0194323 C26.87132,29.1195323 27.16966,29.2154323 27.46926,29.3088123 C24.17464,28.9684723 21.01708,28.1792923 18.46992,27.4689323 L18.46558,27.4675323 Z M30.64236,30.3789723 C30.96772,30.3789723 31.29266,30.3728123 31.61704,30.3611923 C33.17804,30.6710123 34.75864,30.8915123 36.337,31.0170923 C33.84766,31.9499123 31.13502,32.3711723 28.41804,32.3711723 C25.35778,32.3711723 22.2929,31.8381923 19.5349,30.9029923 C16.47408,29.9707323 13.50216,29.4632323 10.54816,29.4630923 C7.1624,29.4629523 3.79988,30.1294923 0.34804,31.5874523 C3.91062,28.9148523 8.23886,27.5919923 12.60084,27.5917123 C14.49028,27.5917123 16.38532,27.8397923 18.22856,28.3338523 C22.34806,29.4829723 26.5244,30.3789723 30.64236,30.3789723 Z M7.8022,23.3613323 C5.35416,24.1467323 3.05004,25.2336923 0.92722,26.5998123 L0.34818,26.5998123 L0.34818,20.9092323 C40.06128,1.39995227 62.79126,3.69259227 62.79126,3.69259227 L51.96856,24.4865123 C49.04578,25.3788723 45.93218,25.8187523 42.57092,25.8187523 C36.39356,25.8187523 30.18456,24.3075923 25.4653,22.9911723 L25.45914,22.9893523 L25.45298,22.9876723 C22.76512,22.2672323 19.99466,21.9019723 17.21846,21.9019723 C13.9888,21.9019723 10.82088,22.3930923 7.8022,23.3613323 Z M47.02026,12.6203923 C46.75216,13.8173923 47.36046,14.8119523 48.37868,14.8419123 C49.39718,14.8715923 50.43948,13.9254723 50.7073,12.7286123 C50.97526,11.5314723 50.3671,10.5373323 49.34902,10.5073723 C48.33066,10.4776923 47.28794,11.4235323 47.02026,12.6203923 Z M16.13486,12.0420523 L14.68964,7.10439227 C34.56194,0.329792272 44.67862,3.60957227 44.67862,3.60957227 C29.2628,5.86553227 16.13486,12.0420523 16.13486,12.0420523 Z M35.88662,1.82009227 C23.84634,2.00657227 14.44884,5.54003227 14.4487,5.54003227 L13.00334,1.02223227 C24.55376,-1.67570773 35.88662,1.82009227 35.88662,1.82009227 Z M25.12622,24.2069323 C30.91578,25.8221123 36.7836,27.0809923 42.57092,27.0809923 C48.07978,27.0809923 53.5157,25.9404123 58.74288,22.8808523 C53.66228,27.8266323 46.56372,29.8808523 39.445,29.8808523 C35.14462,29.8808523 30.83752,29.1317123 26.9619,27.8175323 C22.66068,26.5075523 18.48448,25.7942523 14.33348,25.7941123 C9.57572,25.7938323 4.85044,26.7304323 -1.93267624e-12,28.7794723 C5.00654,25.0234123 11.088,23.1643523 17.21818,23.1643523 C19.873,23.1643523 22.5365,23.5128123 25.12622,24.2069323 Z" id="Combined-Shape"></path>
                    </g>
                </g>
            </g>
        </g>
    </g>
</svg>