<?xml version="1.0" encoding="UTF-8"?>
<svg width="8px" height="16px" viewBox="0 0 8 16" version="1.1" xmlns="http://www.w3.org/2000/svg" xmlns:xlink="http://www.w3.org/1999/xlink">
    <!-- Generator: sketchtool 53.2 (72643) - https://sketchapp.com -->
    <title>6CD1D847-69ED-41A6-9D5C-A607F4935F5A</title>
    <desc>Created with sketchtool.</desc>
    <g id="Page-1" stroke="none" stroke-width="1" fill="none" fill-rule="evenodd">
        <g id="CADM_homepage_UI" transform="translate(-1049.000000, -24.000000)" fill="#2C2E34" fill-rule="nonzero">
            <g id="Top-Menu">
                <g id="Social-Media" transform="translate(1049.000000, 24.000000)">
                    <g id="social-media-/-facebook" transform="translate(0.000000, -0.000000)">
                        <path d="M6.86346667,7.69013333 L4.70933333,7.69013333 C4.70933333,11.1317333 4.70933333,15.368 4.70933333,15.368 L1.51733333,15.368 C1.51733333,15.368 1.51733333,11.1728 1.51733333,7.69013333 L6.93667346e-13,7.69013333 L6.93667346e-13,4.97653333 L1.51733333,4.97653333 L1.51733333,3.22133333 C1.51733333,1.96426667 2.11466667,-9.8943076e-13 4.73866667,-9.8943076e-13 L7.104,0.00906666667 L7.104,2.6432 C7.104,2.6432 5.66666667,2.6432 5.3872,2.6432 C5.10773333,2.6432 4.7104,2.78293333 4.7104,3.3824 L4.7104,4.97706667 L7.1424,4.97706667 L6.86346667,7.69013333 Z" id="Path"></path>
                    </g>
                </g>
            </g>
        </g>
    </g>
</svg>