<svg xmlns="http://www.w3.org/2000/svg" width="16" height="15" viewBox="0 0 16 15">
    <g fill="#E95C1B" fill-rule="nonzero">
        <path d="M11.111.333H4.576A4.03 4.03 0 0 0 .55 4.358v6.536a4.03 4.03 0 0 0 4.025 4.025h6.535a4.03 4.03 0 0 0 4.026-4.025V4.358A4.03 4.03 0 0 0 11.11.333zm2.731 10.56a2.734 2.734 0 0 1-2.73 2.732H4.575a2.734 2.734 0 0 1-2.731-2.731V4.358a2.734 2.734 0 0 1 2.73-2.73h6.536a2.734 2.734 0 0 1 2.731 2.73v6.536z"/>
        <path d="M7.844 3.868a3.763 3.763 0 0 0-3.759 3.758 3.763 3.763 0 0 0 3.759 3.759 3.763 3.763 0 0 0 3.758-3.759 3.763 3.763 0 0 0-3.758-3.758zm0 6.222a2.467 2.467 0 0 1-2.465-2.464 2.467 2.467 0 0 1 2.465-2.464 2.467 2.467 0 0 1 2.464 2.464 2.467 2.467 0 0 1-2.464 2.464zM11.76 2.77a.953.953 0 0 0-.95.95.956.956 0 0 0 .949.949c.25 0 .495-.102.672-.278a.953.953 0 0 0 0-1.342.953.953 0 0 0-.671-.278z"/>
    </g>
</svg>
