<?xml version="1.0" encoding="UTF-8"?>
<svg width="16px" height="15px" viewBox="0 0 16 15" version="1.1" xmlns="http://www.w3.org/2000/svg" xmlns:xlink="http://www.w3.org/1999/xlink">
    <!-- Generator: sketchtool 53.2 (72643) - https://sketchapp.com -->
    <title>C9EBEA5B-9D13-4CB0-B883-B03838B4562E</title>
    <desc>Created with sketchtool.</desc>
    <g id="Page-1" stroke="none" stroke-width="1" fill="none" fill-rule="evenodd">
        <g id="CADM_homepage_UI" transform="translate(-1117.000000, -25.000000)" fill="#2C2E34">
            <g id="Top-Menu">
                <g id="Social-Media" transform="translate(1049.000000, 24.000000)">
                    <g id="social-media-/-instagram" transform="translate(68.550781, 1.333333)">
                        <g transform="translate(-0.000000, 0.000000)">
                            <path d="M10.5605176,-1.05249143e-12 L4.02505098,-1.05249143e-12 C1.80563922,-1.05249143e-12 -1.05249143e-12,1.80572549 -1.05249143e-12,4.02513725 L-1.05249143e-12,10.5606039 C-1.05249143e-12,12.780102 1.80563922,14.5857412 4.02505098,14.5857412 L10.5605176,14.5857412 C12.780102,14.5857412 14.5857412,12.7800157 14.5857412,10.5606039 L14.5857412,4.02513725 C14.5858275,1.80572549 12.780102,-1.05249143e-12 10.5605176,-1.05249143e-12 Z M13.2917098,10.5606039 C13.2917098,12.0665255 12.0665255,13.2916235 10.5606039,13.2916235 L4.02505098,13.2916235 C2.51921569,13.2917098 1.29411765,12.0665255 1.29411765,10.5606039 L1.29411765,4.02513725 C1.29411765,2.51930196 2.51921569,1.29411765 4.02505098,1.29411765 L10.5605176,1.29411765 C12.0664392,1.29411765 13.2916235,2.51930196 13.2916235,4.02513725 L13.2916235,10.5606039 L13.2917098,10.5606039 Z" id="Shape" fill-rule="nonzero"></path>
                            <path d="M7.29287059,3.53466667 C5.22047059,3.53466667 3.53449412,5.22064314 3.53449412,7.29304314 C3.53449412,9.36535686 5.22047059,11.0512471 7.29287059,11.0512471 C9.36527059,11.0512471 11.0512471,9.36535686 11.0512471,7.29304314 C11.0512471,5.22064314 9.36527059,3.53466667 7.29287059,3.53466667 Z M7.29287059,9.75704314 C5.93413333,9.75704314 4.82861176,8.65169412 4.82861176,7.29295686 C4.82861176,5.93413333 5.93404706,4.82869804 7.29287059,4.82869804 C8.65169412,4.82869804 9.75712941,5.93413333 9.75712941,7.29295686 C9.75712941,8.65169412 8.65160784,9.75704314 7.29287059,9.75704314 Z" id="Shape" fill-rule="nonzero"></path>
                            <path d="M11.2088706,2.43734118 C10.9595373,2.43734118 10.7146039,2.53828235 10.5385176,2.7151451 C10.3615686,2.8911451 10.259851,3.13616471 10.259851,3.38636078 C10.259851,3.63578039 10.3616549,3.88071373 10.5385176,4.05757647 C10.7145176,4.23357647 10.9595373,4.33538039 11.2088706,4.33538039 C11.4590667,4.33538039 11.7032235,4.23357647 11.8800863,4.05757647 C12.056949,3.88071373 12.1578902,3.63569412 12.1578902,3.38636078 C12.1578902,3.13616471 12.056949,2.8911451 11.8800863,2.7151451 C11.7040863,2.53828235 11.4590667,2.43734118 11.2088706,2.43734118 Z" id="Path" fill-rule="nonzero"></path>
                        </g>
                    </g>
                </g>
            </g>
        </g>
    </g>
</svg>