<svg xmlns="http://www.w3.org/2000/svg" width="15" height="14" viewBox="0 0 15 14">
    <path fill="#E95C1B" fill-rule="nonzero" d="M3.636 13.908H.592v-9.16h3.044v9.16zM2.114 3.498h-.02c-1.021 0-1.682-.703-1.682-1.582 0-.899.681-1.583 1.722-1.583 1.042 0 1.683.684 1.703 1.583 0 .879-.661 1.582-1.723 1.582zm12.5 10.41H11.57v-4.9c0-1.232-.441-2.071-1.543-2.071-.84 0-1.342.566-1.562 1.113-.08.196-.1.47-.1.743v5.115H5.321s.04-8.3 0-9.16h3.044v1.297c.405-.624 1.129-1.511 2.744-1.511 2.003 0 3.504 1.309 3.504 4.122v5.252z"/>
</svg>
