<?xml version="1.0" encoding="UTF-8"?>
<svg width="15px" height="14px" viewBox="0 0 15 14" version="1.1" xmlns="http://www.w3.org/2000/svg" xmlns:xlink="http://www.w3.org/1999/xlink">
    <!-- Generator: sketchtool 53.2 (72643) - https://sketchapp.com -->
    <title>F3C93D70-8095-4905-9774-E9506ACF8E80</title>
    <desc>Created with sketchtool.</desc>
    <g id="Page-1" stroke="none" stroke-width="1" fill="none" fill-rule="evenodd">
        <g id="CADM_homepage_UI" transform="translate(-1082.000000, -25.000000)" fill="#2C2E34" fill-rule="nonzero">
            <g id="Top-Menu">
                <g id="Social-Media" transform="translate(1049.000000, 24.000000)">
                    <g id="social-media-/-linkedin" transform="translate(33.412109, 1.333333)">
                        <path d="M3.22418213,13.5742187 L0.179862988,13.5742187 L0.179862988,4.41532134 L3.22418213,4.41532134 L3.22418213,13.5742187 Z M1.70211792,3.16467285 L1.68228149,3.16467285 C0.660705566,3.16467285 8.8817842e-16,2.4614334 8.8817842e-16,1.58252715 C8.8817842e-16,0.683784473 0.680923486,0 1.72233579,0 C2.76374819,0 3.40461733,0.683784473 3.42445376,1.58252715 C3.42445376,2.4614334 2.76374819,3.16467285 1.70211792,3.16467285 Z M14.201355,13.5742187 L11.1574173,13.5742187 L11.1574173,8.67443086 C11.1574173,7.44304658 10.7166291,6.60324097 9.61513521,6.60324097 C8.77418521,6.60324097 8.27331543,7.16972354 8.05320737,7.71656035 C7.97271729,7.91225435 7.95307158,8.18576812 7.95307158,8.45947266 L7.95307158,13.5742187 L4.90894316,13.5742187 C4.90894316,13.5742187 4.94880679,5.27458193 4.90894316,4.41532134 L7.95307158,4.41532134 L7.95307158,5.71212769 C8.35762026,5.08804321 9.08145903,4.20036318 10.6966019,4.20036318 C12.6995086,4.20036318 14.201355,5.50937651 14.201355,8.322525 L14.201355,13.5742187 Z"></path>
                    </g>
                </g>
            </g>
        </g>
    </g>
</svg>